<?xml version="1.0" standalone="no"?>
<!DOCTYPE svg PUBLIC "-//W3C//DTD SVG 20010904//EN"
 "http://www.w3.org/TR/2001/REC-SVG-20010904/DTD/svg10.dtd">
<svg version="1.0" xmlns="http://www.w3.org/2000/svg"
 width="307.000000pt" height="307.000000pt" viewBox="0 0 307.000000 307.000000"
 preserveAspectRatio="xMidYMid meet">
<metadata>
Created by potrace 1.11, written by Peter Selinger 2001-2013
</metadata>
<g transform="translate(0.000000,307.000000) scale(0.100000,-0.100000)"
fill="#000000" stroke="none">
<path d="M1481 2998 c-28 -29 -51 -56 -51 -60 0 -5 -4 -8 -8 -8 -4 0 -261
-252 -570 -559 l-563 -559 61 -62 c38 -39 65 -58 73 -54 6 4 117 112 244 238
128 127 239 232 247 234 7 2 136 -120 286 -271 l273 -274 375 373 c206 205
373 377 371 383 -7 19 -661 671 -674 671 -7 0 -35 -24 -64 -52z m273 -402
c111 -112 203 -211 203 -221 0 -14 -235 -256 -439 -453 l-45 -43 -211 211
c-117 117 -212 215 -212 218 0 4 27 34 60 67 33 33 60 63 60 67 0 5 4 8 9 8 4
0 87 79 184 175 97 96 179 175 182 175 3 0 97 -92 209 -204z"/>
<path d="M2025 1899 c-181 -181 -331 -329 -332 -329 -2 0 -21 -18 -43 -41 -39
-40 -39 -41 -22 -65 9 -13 23 -24 31 -24 8 0 12 -2 10 -4 -3 -3 139 -150 314
-327 l318 -323 365 365 c200 200 369 372 374 381 8 14 -49 76 -328 357 -186
188 -343 341 -348 340 -5 0 -157 -148 -339 -330z m581 -159 c101 -101 184
-190 184 -198 0 -11 -372 -388 -470 -477 -18 -16 -29 -7 -235 200 -190 190
-215 218 -203 233 7 9 118 121 247 250 l233 234 30 -29 c16 -15 113 -111 214
-213z"/>
<path d="M749 1705 c-96 -97 -173 -179 -172 -184 3 -12 109 -121 118 -121 4 0
86 79 182 175 l176 176 -24 26 c-32 35 -62 64 -86 86 -19 17 -24 13 -194 -158z"/>
<path d="M90 1615 c-35 -35 -62 -66 -59 -69 2 -2 57 -59 122 -125 66 -67 123
-121 127 -121 5 0 10 -4 12 -9 2 -5 95 -102 206 -216 196 -198 205 -206 225
-191 12 8 153 144 314 304 l291 289 -64 64 -64 63 -26 -25 c-14 -13 -122 -120
-239 -236 -118 -117 -219 -213 -225 -213 -6 0 -134 124 -283 275 l-273 275
-64 -65z"/>
<path d="M1278 1141 c-87 -87 -158 -161 -158 -165 0 -10 405 -416 414 -416 16
0 123 115 119 128 -5 12 -17 25 -118 120 -25 24 -45 46 -46 50 0 4 -25 27 -54
52 -33 28 -53 52 -52 63 1 10 41 58 90 106 48 48 87 92 87 98 0 12 -107 123
-118 123 -4 -1 -78 -72 -164 -159z"/>
<path d="M906 781 l-59 -59 341 -341 c187 -188 344 -341 349 -341 11 0 613
596 613 607 0 4 -27 35 -60 67 l-61 59 -30 -29 c-17 -16 -127 -125 -246 -242
l-215 -213 -149 149 c-82 82 -149 147 -149 145 0 -2 -15 13 -32 34 -63 72
-219 223 -231 223 -7 0 -39 -27 -71 -59z"/>
</g>
</svg>
